<?xml version="1.0" encoding="UTF-8"?>
<svg width="57px" height="65px" viewBox="0 0 57 65" version="1.1" xmlns="http://www.w3.org/2000/svg" xmlns:xlink="http://www.w3.org/1999/xlink">
    <title>abonar</title>
    <g id="abonar" stroke="none" stroke-width="1" fill="none" fill-rule="evenodd">
        <g id="Group-2-Copy" transform="translate(28.798701, 47.987151) rotate(90.000000) translate(-28.798701, -47.987151) translate(19.298701, 43.797122)" stroke="#252323" stroke-width="2.5">
            <g id="Group-3">
                <line x1="9.44736789" y1="-5.31789888" x2="9.46320177" y2="13.195259" id="Stroke-7" transform="translate(9.500000, 4.182101) rotate(-90.000000) translate(-9.500000, -4.182101) "></line>
                <path d="M13.2763822,-0.697996374 C13.2763822,-0.697996374 11.8535968,-2.30997076 9.41520868,-2.30997076 C6.97682052,-2.30997076 5.68701674,-0.696840008 5.68701674,0.787934102 C5.68701674,2.26923911 6.65907689,3.26949581 8.35606324,3.84074068 C10.1789702,4.45245836 12.1030844,4.34375995 13.0469007,5.96382889 C13.8542049,7.34915552 13.5894185,9.44680368 11.2816583,10.3395183 C9.5281842,11.0171489 7.00388757,10.8483194 5.08095019,8.61075096" id="Stroke-9" transform="translate(9.270979, 4.190029) rotate(-90.000000) translate(-9.270979, -4.190029) "></path>
            </g>
        </g>
        <line x1="46.0292737" y1="18.3448276" x2="12.4401089" y2="18.3448276" id="Stroke-5" stroke="#252323" stroke-width="3" transform="translate(29.234691, 18.344828) rotate(-90.000000) translate(-29.234691, -18.344828) "></line>
        <polyline id="Stroke-3" stroke="#252323" stroke-width="3" transform="translate(29.087030, 30.984977) rotate(90.000000) translate(-29.087030, -30.984977) " points="24.8883848 21.6918736 33.285676 30.9708119 24.8883848 40.2780805"></polyline>
        <path d="M36.4729159,13.6478555 L53.3521445,13.6478555 L53.3521445,51.8601102 C53.3521445,57.7934416 48.3610121,62.6478555 42.2641655,62.6478555 L4.64785553,62.6478555 L4.64785553,45.9096304 L4.64785553,31.0420053 L4.64785553,13.6478555 L21.0453754,13.6478555" id="Combined-Shape" stroke="#252323" stroke-width="3"></path>
    </g>
</svg>