<?xml version="1.0" encoding="UTF-8"?>
<svg width="51px" height="48px" viewBox="0 0 51 48" version="1.1" xmlns="http://www.w3.org/2000/svg" xmlns:xlink="http://www.w3.org/1999/xlink">
    <!-- Generator: Sketch 63.1 (92452) - https://sketch.com -->
    <title>ahorro</title>
    <desc>Created with Sketch.</desc>
    <defs>
        <polygon id="path-1" points="0.4272 0.9399 30.9042 0.9399 30.9042 9 0.4272 9"></polygon>
        <polygon id="path-3" points="0.1162 0.4274 20.222 0.4274 20.222 25.8584 0.1162 25.8584"></polygon>
    </defs>
    <g id="ahorro" stroke="none" stroke-width="1" fill="none" fill-rule="evenodd">
        <g id="Group-29">
            <path d="M14.6304752,25.9072 C14.6165,33.3482 20.5385,38.8852 27.4865,38.9492 C34.8165,39.0172 40.6615,33.2192 40.6835567,25.9472 C40.7045,18.8232 34.8875,12.9342 27.8205,12.8902 C20.7475,12.8462 14.6445,18.3572 14.6304752,25.9072" id="Fill-1" fill="#BFD6EA"></path>
            <g id="Group-5" transform="translate(12.000000, 38.527000)">
                <mask id="mask-2" fill="white">
                    <use xlink:href="#path-1"></use>
                </mask>
                <g id="Clip-4"></g>
                <path d="M23.8542,4.0819 L25.2012,4.0819 C19.1542,7.7929 8.9732,7.9529 1.9742,0.9399 C1.4682,1.5199 0.9622,2.1009 0.4272,2.7139 C3.8612,6.1579 8.0832,8.1989 12.9822,8.8179 C17.8692,9.4359 22.4652,8.4819 26.8302,5.9469 C26.6802,6.4739 26.5672,6.8709 26.4472,7.2939 C27.2202,7.5539 27.9262,7.7909 28.6542,8.0359 C29.4072,5.8039 30.1432,3.6219 30.9042,1.3659 C28.4622,1.5019 26.0922,1.6339 23.7082,1.7659 C23.7602,2.5989 23.8062,3.3279 23.8542,4.0819" id="Fill-3" fill="#BFD6EA" mask="url(#mask-2)"></path>
            </g>
            <path d="M8.6091,26.8882 C8.3311,23.5872 8.9841,20.4712 10.4341,17.5342 C12.8301,12.6812 16.6541,9.4262 21.7671,7.6032 C21.5101,6.8452 21.2671,6.1262 21.0141,5.3752 C16.3021,7.0152 12.5671,9.7972 9.8231,13.8652 C7.0931,17.9142 5.9191,22.4152 6.1041,27.2942 C6.0511,27.3172 5.9981,27.3412 5.9461,27.3652 C5.6991,27.0552 5.4521,26.7452 5.1951,26.4232 C4.5641,27.0032 4.0121,27.5112 3.4301,28.0452 C5.0341,29.7902 6.5921,31.4872 8.2031,33.2402 C9.2591,31.0342 10.2791,28.9062 11.3191,26.7342 C10.5781,26.3842 9.8921,26.0582 9.1891,25.7262 C8.9711,26.1632 8.7901,26.5262 8.6091,26.8882" id="Fill-6" fill="#BFD6EA"></path>
            <g id="Group-10" transform="translate(29.000000, 2.527000)">
                <mask id="mask-4" fill="white">
                    <use xlink:href="#path-3"></use>
                </mask>
                <g id="Clip-9"></g>
                <path d="M17.0372,12.2064 C14.4932,8.0144 10.9162,5.0054 6.2312,3.1494 C6.7392,2.9504 7.1102,2.8044 7.5422,2.6344 C7.2742,1.8764 7.0212,1.1604 6.7622,0.4274 C4.5132,1.2214 2.3472,1.9864 0.1162,2.7734 C1.7352,4.6194 3.2912,6.3934 4.8692,8.1904 C5.4982,7.6384 6.0582,7.1454 6.6362,6.6384 C6.4672,6.4364 6.3432,6.2894 6.2202,6.1414 C6.0912,5.9854 5.9642,5.8304 5.8362,5.6744 C8.4852,6.6294 10.7162,8.1764 12.5802,10.2244 C16.5382,14.5714 18.2872,19.6964 17.7962,25.5874 C18.5702,25.6784 19.2952,25.7644 20.1002,25.8584 C20.5982,20.9214 19.5732,16.3874 17.0372,12.2064" id="Fill-8" fill="#BFD6EA" mask="url(#mask-4)"></path>
            </g>
            <polyline id="Stroke-11" stroke="#0077E2" stroke-width="2.1" points="32.2396 38.3926 37.7096 38.0896 36.0076 43.1306"></polyline>
            <path d="M37.7098,38.0893 C29.7748,45.4063 17.0558,44.8403 9.6438,37.2243" id="Stroke-13" stroke="#0077E2" stroke-width="2.1"></path>
            <path d="M35.9814,22.855 C35.9814,16.313 30.6774,11.007 24.1334,11.007 C17.5894,11.007 12.2864,16.313 12.2864,22.855 C12.2864,29.398 17.5894,34.702 24.1334,34.702 C30.6774,34.702 35.9814,29.398 35.9814,22.855 Z" id="Stroke-15" stroke="#0077E2" stroke-width="2.1"></path>
            <line x1="24.342" y1="14.0166" x2="24.342" y2="32.3986" id="Stroke-17" stroke="#0077E2" stroke-width="2.1"></line>
            <path d="M28.3586,17.8472 C28.3586,17.8472 26.8776,16.1402 24.3416,16.1402 C21.8056,16.1402 20.4606,17.8502 20.4606,19.4192 C20.4606,20.9902 21.4746,22.0482 23.2386,22.6532 C25.1346,23.3012 27.1366,23.1852 28.1196,24.9012 C28.9606,26.3692 28.6836,28.5902 26.2816,29.5352 C24.4586,30.2532 21.8326,30.0742 19.8316,27.7022" id="Stroke-19" stroke="#0077E2" stroke-width="2.1"></path>
            <path d="M27.6376,2.7573 C38.2896,4.4953 45.6096,14.7693 44.4056,25.1953" id="Stroke-21" stroke="#0077E2" stroke-width="2.1"></path>
            <polyline id="Stroke-23" stroke="#0077E2" stroke-width="2.1" points="31.245 6.876 27.638 2.757 32.652 0.99"></polyline>
            <path d="M4.3716,28.0791 C1.7786,17.6011 7.5176,6.8761 17.8946,3.4201" id="Stroke-25" stroke="#0077E2" stroke-width="2.1"></path>
            <polyline id="Stroke-27" stroke="#0077E2" stroke-width="2.1" points="6.7386 23.1396 4.3716 28.0786 0.7736 24.1606"></polyline>
        </g>
    </g>
</svg>