<?xml version="1.0" encoding="UTF-8"?>
<svg width="51px" height="51px" viewBox="0 0 51 51" version="1.1" xmlns="http://www.w3.org/2000/svg" xmlns:xlink="http://www.w3.org/1999/xlink">
    <title>Group 9</title>
    <g id="Cartera-y-Resumen-V1" stroke="none" stroke-width="1" fill="none" fill-rule="evenodd">
        <g id="2.9-Resumen-Mobile-(con-cartera)-" transform="translate(-135.000000, -330.000000)">
            <g id="pep" transform="translate(36.000000, 330.000000)">
                <g id="Group-9" transform="translate(99.000000, 0.000000)">
                    <circle id="Oval" fill="#BFD6EA" cx="26.5625" cy="26.5625" r="23.4375"></circle>
                    <circle id="Oval" stroke="#0077E2" stroke-width="2" cx="23.4375" cy="23.4375" r="22.4375"></circle>
                    <path d="M24,15.19 L31,18.3 L31,23 C31,27.52 28.02,31.69 24,32.93 C19.98,31.69 17,27.52 17,23 L17,18.3 L24,15.19 M24,13 L15,17 L15,23 C15,28.55 18.84,33.74 24,35 C29.16,33.74 33,28.55 33,23 L33,17 L24,13 L24,13 Z M23,19 L25,19 L25,21 L23,21 L23,19 Z M23,23 L25,23 L25,29 L23,29 L23,23 Z" id="Shape" fill="#0077E2" fill-rule="nonzero"></path>
                </g>
            </g>
        </g>
    </g>
</svg>