<?xml version="1.0" encoding="UTF-8"?>
<svg width="197px" height="189px" viewBox="0 0 197 189" version="1.1" xmlns="http://www.w3.org/2000/svg" xmlns:xlink="http://www.w3.org/1999/xlink">
    <!-- Generator: Sketch 63.1 (92452) - https://sketch.com -->
    <title>Group</title>
    <desc>Created with Sketch.</desc>
    <g id="Mensaje-Error" stroke="none" stroke-width="1" fill="none" fill-rule="evenodd">
        <g id="Artboard" transform="translate(-983.000000, -453.000000)">
            <g id="Group" transform="translate(984.000000, 454.000000)">
                <path d="M196,97.0019443 C196,147.264759 154.58144,188 103.494071,188 C52.4067008,188 11,147.264759 11,97.0019443 C11,46.7430183 52.4067008,6 103.494071,6 C154.58144,6 196,46.7430183 196,97.0019443" id="Fill-1" fill="#D0D0E8" fill-rule="nonzero"></path>
                <path d="M185,91.0019443 C185,141.264759 143.58144,182 92.4940708,182 C41.4067008,182 0,141.264759 0,91.0019443 C0,40.7430183 41.4067008,0 92.4940708,0 C143.58144,0 185,40.7430183 185,91.0019443 Z" id="Stroke-3" stroke="#0033A0"></path>
                <path d="M75,70.9963519 C75,75.9687879 70.3002231,80 64.5021286,80 C58.6997769,80 54,75.9687879 54,70.9963519 C54,66.0348602 58.6997769,62 64.5021286,62 C70.3002231,62 75,66.0348602 75,70.9963519" id="Fill-5" fill="#0033A0" fill-rule="nonzero"></path>
                <path d="M132,70.9963519 C132,75.9687879 127.30448,80 121.502129,80 C115.704034,80 111,75.9687879 111,70.9963519 C111,66.0348602 115.704034,62 121.502129,62 C127.30448,62 132,66.0348602 132,70.9963519" id="Fill-7" fill="#0033A0" fill-rule="nonzero"></path>
                <path d="M150,142 C138.395508,123.383261 117.888455,111 94.5059166,111 C71.1154898,111 50.608436,123.383261 39,142" id="Stroke-9" stroke="#0033A0"></path>
            </g>
        </g>
    </g>
</svg>