<?xml version="1.0" standalone="no"?><!DOCTYPE svg PUBLIC "-//W3C//DTD SVG 1.1//EN" "http://www.w3.org/Graphics/SVG/1.1/DTD/svg11.dtd"><svg class="icon" height="512" viewBox="0 0 1024 1024" version="1.1" xmlns="http://www.w3.org/2000/svg"><path d="M509.1328 87.83872c-237.35296 0-429.73184 192.36864-429.73184 429.73184 0 237.35296 192.37888 429.73184 429.73184 429.73184 237.35296 0 429.73184-192.37888 429.73184-429.73184 0-237.3632-192.38912-429.73184-429.73184-429.73184m0 823.66464c-217.15968 0-393.9328-176.68096-393.9328-393.9328 0-217.16992 176.67072-393.94304 393.9328-393.94304s393.9328 176.77312 393.9328 393.94304c-0.01024 217.15968-176.77312 393.9328-393.9328 393.9328" fill="#040000" /><path d="M333.4144 331.0592a21.30944 21.30944 0 0 1 29.68576 7.28064l54.13888 43.71456a21.2992 21.2992 0 0 1-7.28064 29.68576l-46.85824 28.39552a21.63712 21.63712 0 0 1-16.16896 2.68288c-5.0176-1.23904-10.36288-4.7616-13.09696-9.86112a21.30944 21.30944 0 0 1 7.28064-29.68576l28.64128-17.3568-43.10016-25.48736a20.44928 20.44928 0 0 1 6.7584-29.36832M682.01472 332.48256a21.30944 21.30944 0 0 0-28.06784 12.10368l-51.33312 43.06944a21.32992 21.32992 0 0 0 12.12416 28.06784l50.91328 20.224c5.66272 2.2528 11.66336 2.00704 16.40448-0.03072 4.74112-2.048 9.43104-6.41024 11.27424-11.89888a21.31968 21.31968 0 0 0-12.10368-28.06784l-36.93568-5.23264 49.28512-30.39232a20.51072 20.51072 0 0 0-11.56096-27.84256" fill="#040000" /><path d="M491.02848 726.35392c-16.03584 0-32.78848-4.17792-49.26464-15.57504-40.05888-27.72992-73.94304-3.05152-75.35616-1.98656-6.7584 5.04832-16.384 3.7376-21.47328-2.97984a15.29856 15.29856 0 0 1 2.80576-21.41184c17.99168-13.86496 64.43008-31.47776 111.5136 1.11616 30.95552 21.44256 64.58368 4.33152 91.60704-9.41056 9.35936-4.7616 17.43872-8.86784 24.77056-10.94656 31.45728-8.83712 86.44608 4.43392 103.46496 32.0512a15.34976 15.34976 0 1 1-26.13248 16.11776c-8.41728-13.64992-48.37376-24.44288-68.95616-18.60608-4.44416 1.25952-11.6224 4.90496-19.21024 8.76544-18.49344 9.39008-44.98432 22.86592-73.76896 22.86592z" fill="" /></svg>