<?xml version="1.0" encoding="UTF-8"?>
<svg width="60px" height="60px" viewBox="0 0 60 60" version="1.1" xmlns="http://www.w3.org/2000/svg" xmlns:xlink="http://www.w3.org/1999/xlink">
    <title>Group 9</title>
    <g id="Informe-de-inversiones" stroke="none" stroke-width="1" fill="none" fill-rule="evenodd">
        <g id="Informe-inversiones-5" transform="translate(-737.000000, -219.000000)">
            <g id="Group-9" transform="translate(737.000000, 219.000000)">
                <circle id="Oval" fill="#BFD6EA" cx="31.875" cy="31.875" r="28.125"></circle>
                <circle id="Oval" stroke="#0077E2" stroke-width="2.5" cx="28.125" cy="28.125" r="26.875"></circle>
                <path d="M38.245614,15.7894737 L18.5964912,15.7894737 C17.0526316,15.7894737 15.7894737,17.0526316 15.7894737,18.5964912 L15.7894737,38.245614 C15.7894737,39.7894737 17.0526316,41.0526316 18.5964912,41.0526316 L38.245614,41.0526316 C39.7894737,41.0526316 41.0526316,39.7894737 41.0526316,38.245614 L41.0526316,18.5964912 C41.0526316,17.0526316 39.7894737,15.7894737 38.245614,15.7894737 Z M38.245614,38.245614 L18.5964912,38.245614 L18.5964912,18.5964912 L38.245614,18.5964912 L38.245614,38.245614 Z M21.4035088,25.6140351 L24.2105263,25.6140351 L24.2105263,35.4385965 L21.4035088,35.4385965 L21.4035088,25.6140351 Z M27.0175439,21.4035088 L29.8245614,21.4035088 L29.8245614,35.4385965 L27.0175439,35.4385965 L27.0175439,21.4035088 Z M32.6315789,29.8245614 L35.4385965,29.8245614 L35.4385965,35.4385965 L32.6315789,35.4385965 L32.6315789,29.8245614 Z" id="Shape" fill="#0077E2" fill-rule="nonzero"></path>
            </g>
        </g>
    </g>
</svg>