<?xml version="1.0" encoding="UTF-8"?>
<svg width="51px" height="41px" viewBox="0 0 51 41" version="1.1" xmlns="http://www.w3.org/2000/svg" xmlns:xlink="http://www.w3.org/1999/xlink">
    <title>Group 6</title>
    <defs>
        <polygon id="path-1" points="0 0 51 0 51 38 0 38"></polygon>
    </defs>
    <g id="Cartera-y-Resumen-V1" stroke="none" stroke-width="1" fill="none" fill-rule="evenodd">
        <g id="Resumen-4-cliente-(New-UI)" transform="translate(-379.000000, -710.000000)">
            <g id="Group-6" transform="translate(379.000000, 711.000000)">
                <g id="Group-3" transform="translate(0.000000, 2.000000)">
                    <mask id="mask-2" fill="white">
                        <use xlink:href="#path-1"></use>
                    </mask>
                    <g id="Clip-2"></g>
                    <path d="M13.6591461,0 L13.6591461,13.9378401 L13.6591461,18.5162219 L3.63229135,18.5162219 L3.63229135,19.6333333 L13.6591461,19.6333333 L13.6591461,25.8533135 L13.6591461,39.2666667 L42.5007506,39.2666667 C47.1753941,39.2666667 51,35.3765309 51,30.620648 L51,0 L13.6591461,0 Z" id="Fill-1" fill="#BFD6EA" mask="url(#mask-2)"></path>
                </g>
                <g id="Group-2" stroke="#0077E2" stroke-width="2">
                    <g id="rescatar_icn">
                        <g id="Group-3">
                            <polyline id="Stroke-3" points="19.7450658 12 26.3267544 19.1959113 19.7450658 26.4137931"></polyline>
                            <line x1="26.3267544" y1="19.2068966" x2="-5.35639908e-14" y2="19.2068966" id="Stroke-5"></line>
                            <path d="M10.4210069,13.4893406 L10.4210069,0 L48.5948008,0 L48.5948008,29.6339934 C48.5948008,34.2353524 44.6828156,38 39.9041858,38 L10.4210069,38 L10.4210069,25.0193356" id="Stroke-1"></path>
                            <line x1="37.0105235" y1="12" x2="37.0105235" y2="26.5840571" id="Stroke-7"></line>
                            <path d="M40.2745392,15.0395029 C40.2745392,15.0395029 39.0719077,13.6853314 37.0108219,13.6853314 C34.9497362,13.6853314 33.8595094,15.0404743 33.8595094,16.2877886 C33.8595094,17.5321886 34.6811585,18.3724743 36.1155627,18.85236 C37.6564033,19.3662457 39.2827909,19.2749314 40.0805664,20.6359029 C40.7629529,21.7996743 40.5391381,23.5618457 38.5884677,24.3117886 C37.1063163,24.8810457 34.9726151,24.7392171 33.3472222,22.8595029" id="Stroke-9"></path>
                        </g>
                    </g>
                </g>
            </g>
        </g>
    </g>
</svg>