<?xml version="1.0" encoding="UTF-8"?>
<svg width="65px" height="53px" viewBox="0 0 65 53" version="1.1" xmlns="http://www.w3.org/2000/svg" xmlns:xlink="http://www.w3.org/1999/xlink">
    <title>invertir_ffmm</title>
    <g id="invertir_ffmm" stroke="none" stroke-width="1" fill="none" fill-rule="evenodd">
        <g id="Group-2-Copy" transform="translate(-0.000000, 2.000000)" stroke="#252323" stroke-width="3">
            <g id="Group-3">
                <polyline id="Stroke-3" points="25.1918736 15.4736842 33.5891648 24.7526225 25.1918736 34.0598911"></polyline>
                <line x1="33.5891648" y1="24.7667877" x2="0" y2="24.7667877" id="Stroke-5"></line>
                <path d="M13.2957111,17.3941497 L13.2957111,0 L62,0 L62,38.2122547 C62,44.145586 57.0088676,49 50.9120211,49 L13.2957111,49 L13.2957111,32.2617749" id="Stroke-1"></path>
                <line x1="47.2201227" y1="11.1501548" x2="47.2429422" y2="37.8308824" id="Stroke-7"></line>
                <path d="M52.7384081,17.8082496 C52.7384081,17.8082496 50.6879233,15.48511 47.1737756,15.48511 C43.659628,15.48511 41.8007931,17.8099161 41.8007931,19.9497376 C41.8007931,22.0845596 43.2017034,23.526106 45.6473602,24.3493706 C48.2744908,25.2309638 51.0474789,25.0743102 52.4076847,27.4091154 C53.5711525,29.4056155 53.1895487,32.4286967 49.8636589,33.7152561 C47.3365933,34.6918413 43.6986364,34.4485282 40.9273443,31.2237972" id="Stroke-9"></path>
            </g>
        </g>
    </g>
</svg>