<?xml version="1.0" encoding="utf-8"?>
<!-- Generator: Adobe Illustrator 24.3.0, SVG Export Plug-In . SVG Version: 6.00 Build 0)  -->
<svg version="1.1" id="Capa_1" xmlns="http://www.w3.org/2000/svg" xmlns:xlink="http://www.w3.org/1999/xlink" x="0px" y="0px"
	 viewBox="0 0 33 39" style="enable-background:new 0 0 33 39;" xml:space="preserve">
<style type="text/css">
	.st0{fill-rule:evenodd;clip-rule:evenodd;fill:#00AEC7;}
</style>
<g id="Cartera-y-Resumen-V1">
	<g id="Home-1.2-menu-off-_x28_New-UI_x29_" transform="translate(-223.000000, -31.000000)">
		<g id="Menu-off" transform="translate(207.000000, 0.000000)">
			<g id="logo-blanco" transform="translate(16.000000, 31.000000)">
				<g id="Group" transform="translate(0.758950, 0.000000)">
					<path id="Path" class="st0" d="M16.5,32.4c0,0,0.1,0.1,0.1,0.1c-0.4,0.5-1.1,1.2-1.9,1.8c-0.9,0.6-1.9,1.2-2.9,1.7
						c-1.1,0.5-2.1,1-3.1,1.3c-1.2,0.3-2.2,0.4-3,0.3c-0.7-0.1-1.2-0.3-1.7-0.6c0,0,0-0.1,0-0.1c0-0.1,0.1-0.1,0.1-0.1
						c2.6-0.4,4.9-1.1,7.1-1.8C13.3,34.2,15.1,33.3,16.5,32.4"/>
					<path id="Path_1_" class="st0" d="M16.2,31.1c-1.4,0.8-4.3,2.1-6.7,2.8c-3,0.9-5.4,1.3-7,1.1c-1.4-0.2-2.1-0.9-2.3-1.1
						c0,0-0.1-0.1-0.1-0.1c0-0.1,0.1-0.1,0.1-0.1l0.6-0.1c1.2-0.1,3.3-0.2,5.8-0.5c2.9-0.4,7.5-1.3,9.6-2.1
						C16.3,31,16.3,31.1,16.2,31.1"/>
					<path id="Path_2_" class="st0" d="M16,34.8c0.1,0,0.1,0,0.1,0.1c-0.5,1.2-1.1,2.2-2.3,2.8c-2,1-3.1,0.4-3.2,0.4
						c0,0-0.1-0.1-0.1-0.1c0-0.1,0.1-0.1,0.1-0.1c0.9-0.3,3.5-1.3,5.3-3C16,34.8,16,34.8,16,34.8"/>
					<path id="Path_3_" class="st0" d="M29.3,15.6C29.4,15.7,29.4,15.7,29.3,15.6c0.1,0.1,0,0.1-0.1,0.1c-0.6-0.2-1.9-0.5-3.5-1
						c-3.7-1-17.7-4.7-18-4.8l-0.1,0C6.9,9.8,6.2,9.3,5.6,8.8C5.5,8.6,5.3,8.4,5.2,8.2C4.7,7.5,4.6,6.5,4.6,6.3c0,0,0-0.1,0-0.1
						c0,0,0.1,0,0.1,0L7,7.1C12.5,9.2,27,14.7,29.3,15.6"/>
					<path id="Path_4_" class="st0" d="M27,13.4c0,0.1,0,0.1-0.1,0.1c-0.8-0.4-2.7-1.3-4.6-2.2C20.7,10.6,9.9,5.5,9.1,5.1L7.8,4.5
						C7.7,4.4,7.5,4.3,7.3,4.2C6.8,3.9,6.5,3.6,6.2,3.3C6,3,5.9,2.6,5.7,2.3c-0.3-0.8-0.3-1.8-0.3-2c0,0,0-0.1,0.1-0.1
						c0,0,0.1,0,0.1,0L7,1.1l0.7,0.4l4,2.4C17.2,7.3,24.9,12.2,27,13.4"/>
					<path id="Path_5_" class="st0" d="M31,17.1C31,17.1,31,17.2,31,17.1c0.1,0.1,0,0.1,0,0.1c-2.1-0.2-21.3-1.4-21.3-1.4
						c-0.2,0-0.3,0-0.5-0.1c-1.5-0.5-2.4-1.7-2.8-2.8c0-0.1,0-0.1,0-0.1c0,0,0.1-0.1,0.1-0.1C6.4,12.8,29.1,16.8,31,17.1"/>
					<path id="Path_6_" class="st0" d="M30,18.4C30,18.4,30.1,18.5,30,18.4c0.1,0.1,0.1,0.1,0,0.1c-0.8,0.1-15.4,2.2-15.5,2.2
						c-0.1,0-0.2,0-0.3,0s-0.2,0-0.2,0c-0.7-0.1-1.4-0.4-2-1.1c-0.3-0.3-0.6-0.8-0.7-1.1c0,0,0-0.1,0-0.1c0,0,0.1-0.1,0.1-0.1
						c0,0,4.9,0,8-0.1c2.3,0,4.8,0,6.7,0C28,18.5,29.3,18.5,30,18.4"/>
					<path id="Path_7_" class="st0" d="M28.9,20c0,0,0.1,0,0.1,0c0,0,0.1,0.1,0,0.1c-0.5,0.3-10.9,4.7-11.1,4.7
						c-0.6,0.2-1.2,0.3-1.7-0.5c-0.2-0.3-0.4-0.6-0.4-0.7c0-0.1-0.2-0.2,0.2-0.3c0,0,3-0.8,5.6-1.5C24.6,21.1,28,20.2,28.9,20"/>
					<path id="Path_8_" class="st0" d="M24.3,27.2c0.1,0,0.1,0.1,0.1,0.1c-1,1.2-4.8,5.3-6.4,7.1c-0.2,0.2-0.3,0.1-0.2-0.1
						c0,0,0.3-0.8,0.4-1.4c0.1-0.4,0.2-0.7,0.4-0.9C20.7,30.2,22.8,28.4,24.3,27.2L24.3,27.2z"/>
					<path id="Path_9_" class="st0" d="M27.7,22c0.1,0,0.1,0.1,0.1,0.1c-1,0.9-5.7,4.8-8.2,6.9l-0.1,0.1c-0.7,0.6-1.2,0.7-1.3-0.5
						c0-0.3-0.1-0.5-0.1-0.5c-0.1-0.3,0-0.3,0.1-0.3c0.8-0.5,2.4-1.4,3.6-2.2C24.1,24.2,26.7,22.6,27.7,22"/>
				</g>
			</g>
		</g>
	</g>
</g>
</svg>
