<?xml version="1.0" encoding="UTF-8"?>
<svg width="216px" height="39px" viewBox="0 0 216 39" version="1.1" xmlns="http://www.w3.org/2000/svg" xmlns:xlink="http://www.w3.org/1999/xlink">
    <title>Group 18</title>
    <g id="Cartera-y-Resumen-V1" stroke="none" stroke-width="1" fill="none" fill-rule="evenodd">
        <g id="Home-1-menu-on-(con-cartera)" transform="translate(-229.000000, -31.000000)">
            <g id="Menu-on" transform="translate(207.000000, 0.000000)">
                <g id="Group-18" transform="translate(22.000000, 31.000000)">
                    <g id="logo-blanco" transform="translate(0.000000, -0.000000)" fill="#FFFFFF">
                        <g id="Group" transform="translate(78.758950, 0.000000)">
                            <path d="M16.4606205,32.3699284 C16.4868735,32.3699284 16.5393795,32.4224344 16.5131265,32.4749403 C16.1193317,33 15.4367542,33.6300716 14.5704057,34.2338902 C13.7040573,34.8377088 12.7064439,35.4415274 11.6563246,35.9403341 C10.5536993,36.4653938 9.5823389,36.9379475 8.55847255,37.2004773 C7.40334129,37.4892601 6.40572792,37.6205251 5.59188544,37.5155131 C4.90930788,37.4367542 4.35799523,37.2529833 3.93794749,36.9116945 C3.91169451,36.8854415 3.91169451,36.8591885 3.91169451,36.8329356 C3.91169451,36.7804296 3.96420048,36.7541766 4.01670644,36.7279236 C6.58949881,36.3078759 8.9522673,35.6515513 11.1575179,34.8902148 C13.3102625,34.1551313 15.1217184,33.2887828 16.4606205,32.3699284" id="Path"></path>
                            <path d="M16.2243437,31.1360382 C14.8329356,31.9761337 11.9713604,33.2100239 9.47732697,33.9188544 C6.51073986,34.7852029 4.12171838,35.2052506 2.5202864,34.9689737 C1.12887828,34.7589499 0.420047733,34.1026253 0.210023866,33.8663484 C0.183770883,33.8400955 0.131264916,33.8138425 0.1575179,33.7613365 C0.1575179,33.7088305 0.210023866,33.6563246 0.262529833,33.6563246 L0.813842482,33.6038186 C1.99522673,33.5250597 4.12171838,33.4463007 6.61575179,33.0787589 C9.47732697,32.6587112 14.097852,31.8186158 16.1980907,30.9785203 C16.2505967,31.0047733 16.2768496,31.0572792 16.2243437,31.1360382" id="Path"></path>
                            <path d="M16.0143198,34.7852029 C16.0668258,34.7852029 16.0930788,34.8114558 16.0668258,34.8902148 C15.5417661,36.124105 14.9642005,37.0692124 13.8090692,37.646778 C11.7875895,38.6706444 10.7374702,38.0930788 10.5799523,38.0143198 C10.5536993,37.9880668 10.5011933,37.9355609 10.5011933,37.9093079 C10.5011933,37.8568019 10.5536993,37.8305489 10.5799523,37.8305489 C11.4463007,37.5680191 14.097852,36.5704057 15.9093079,34.7852029 C15.9618138,34.7852029 15.9880668,34.7852029 16.0143198,34.7852029" id="Path"></path>
                            <path d="M29.3245823,15.646778 C29.3508353,15.673031 29.3770883,15.699284 29.3770883,15.725537 C29.3770883,15.778043 29.3508353,15.778043 29.2720764,15.778043 C28.6682578,15.5942721 27.3818616,15.2529833 25.7541766,14.8066826 C22.026253,13.8090692 8.0071599,10.1073986 7.77088305,10.0548926 L7.69212411,10.0286396 C6.85202864,9.76610979 6.16945107,9.34606205 5.61813842,8.76849642 C5.46062053,8.61097852 5.32935561,8.42720764 5.17183771,8.21718377 C4.69928401,7.50835322 4.59427208,6.45823389 4.56801909,6.27446301 C4.56801909,6.24821002 4.56801909,6.22195704 4.59427208,6.19570406 C4.62052506,6.16945107 4.64677804,6.16945107 4.72553699,6.16945107 L7.00954654,7.06205251 C12.49642,9.16229117 26.9618138,14.7016706 29.3245823,15.646778" id="Path"></path>
                            <path d="M26.9618138,13.4415274 C26.9880668,13.5202864 26.9355609,13.5465394 26.8568019,13.5465394 C26.0429594,13.1264916 24.1789976,12.2601432 22.2887828,11.3412888 C20.7136038,10.5536993 9.87112172,5.51312649 9.13603819,5.14558473 L7.849642,4.48926014 C7.66587112,4.38424821 7.48210024,4.27923628 7.29832936,4.17422434 C6.79952267,3.85918854 6.51073986,3.64916468 6.24821002,3.28162291 C6.01193317,2.9928401 5.85441527,2.62529833 5.69689737,2.28400955 C5.38186158,1.49642005 5.40811456,0.498806683 5.40811456,0.3150358 C5.40811456,0.288782816 5.43436754,0.262529833 5.46062053,0.23627685 C5.48687351,0.210023866 5.51312649,0.210023866 5.59188544,0.23627685 L6.95704057,1.05011933 L7.69212411,1.49642005 L11.6563246,3.88544153 C17.1957041,7.29832936 24.9403341,12.1813842 26.9618138,13.4415274" id="Path"></path>
                            <path d="M30.9522673,17.1431981 C30.9785203,17.1431981 31.0047733,17.1957041 31.0047733,17.221957 C31.0047733,17.274463 30.9785203,17.274463 30.9260143,17.274463 C28.7995227,17.1169451 9.5823389,15.8568019 9.5823389,15.8568019 C9.39856802,15.8305489 9.2673031,15.8305489 9.08353222,15.778043 C7.56085919,15.3054893 6.66825776,14.124105 6.30071599,12.9689737 C6.30071599,12.9164678 6.27446301,12.8902148 6.30071599,12.8377088 C6.32696897,12.8114558 6.37947494,12.7852029 6.43198091,12.7852029 C6.43198091,12.7852029 29.0883055,16.8019093 30.9522673,17.1431981" id="Path"></path>
                            <path d="M30.0071599,18.4295943 C30.0334129,18.4295943 30.0859189,18.4821002 30.0859189,18.5083532 C30.0859189,18.5346062 30.0596659,18.5608592 30.0071599,18.5608592 C29.2195704,18.6921241 14.6229117,20.7398568 14.5178998,20.7398568 C14.4391408,20.7661098 14.3341289,20.7661098 14.2553699,20.7661098 C14.176611,20.7661098 14.097852,20.7661098 14.0190931,20.7661098 C13.3365155,20.6873508 12.6539379,20.372315 12.0501193,19.7159905 C11.7350835,19.4009547 11.4463007,18.875895 11.3937947,18.6658711 C11.3675418,18.6396181 11.3675418,18.6133652 11.3937947,18.5608592 C11.4200477,18.5346062 11.4463007,18.5083532 11.4988067,18.5083532 C11.4988067,18.5083532 16.4081146,18.4821002 19.4797136,18.4558473 C21.7899761,18.4558473 24.2315036,18.4295943 26.2267303,18.4295943 C27.9594272,18.4558473 29.3245823,18.4558473 30.0071599,18.4295943" id="Path"></path>
                            <path d="M28.9045346,19.9522673 C28.9307876,19.9522673 28.9832936,19.9522673 29.0095465,19.9785203 C29.0095465,20.0047733 29.0620525,20.0310263 28.9832936,20.0835322 C28.5107399,20.398568 18.0357995,24.7828162 17.9307876,24.8090692 C17.353222,25.0190931 16.7231504,25.124105 16.2505967,24.3365155 C16.0668258,23.9952267 15.8830549,23.7326969 15.8042959,23.601432 C15.778043,23.548926 15.646778,23.4176611 15.9618138,23.3389021 C15.9618138,23.3389021 18.928401,22.5250597 21.5536993,21.8687351 C24.5727924,21.0811456 28.0119332,20.1885442 28.9045346,19.9522673" id="Path"></path>
                            <path d="M24.3102625,27.1980907 C24.3627685,27.1980907 24.3890215,27.2505967 24.3627685,27.3293556 C23.3389021,28.5107399 19.6109785,32.6324582 17.9307876,34.4439141 C17.7470167,34.627685 17.6682578,34.548926 17.7207637,34.3651551 C17.7207637,34.3651551 18.0357995,33.5513126 18.1670644,32.947494 C18.2458234,32.5799523 18.3508353,32.2649165 18.5346062,32.0811456 C20.7136038,30.2171838 22.8400955,28.3794749 24.2315036,27.2243437 L24.3102625,27.1980907 Z" id="Path"></path>
                            <path d="M27.7494033,21.973747 C27.8019093,21.973747 27.8281623,22.026253 27.8019093,22.1050119 C26.778043,22.9713604 22.1050119,26.9093079 19.5847255,28.9832936 L19.5059666,29.0620525 C18.7708831,29.6133652 18.2720764,29.7446301 18.1933174,28.5369928 C18.1670644,28.24821 18.1408115,28.0119332 18.1408115,28.0119332 C18.0883055,27.7494033 18.1670644,27.7494033 18.2720764,27.6968974 C19.0859189,27.1980907 20.6610979,26.3054893 21.9212411,25.5441527 C24.1264916,24.2052506 26.725537,22.6038186 27.7494033,21.973747" id="Path"></path>
                        </g>
                        <path d="M11.2100239,18.5083532 L6.58949881,17.24821 C5.32935561,16.9069212 4.17422434,16.3556086 4.17422434,14.8066826 C4.17422434,13.1789976 5.14558473,12.3914081 7.19331742,12.3914081 L11.2887828,12.3914081 C13.1002387,12.3914081 15.2792363,11.7875895 15.2792363,8.84725537 L7.56085919,8.84725537 C2.80906921,8.84725537 0.0787589499,11.2625298 0.0787589499,14.7016706 C0.0787589499,17.9045346 2.10023866,19.7159905 5.74940334,20.6610979 L9.76610979,21.7112172 C11.4200477,22.1575179 12.0238663,23.2076372 12.0238663,24.2577566 C12.0238663,25.8854415 11,26.8568019 8.50596659,26.8830549 L0.787589499,26.9618138 L0.787589499,30.4534606 L8.61097852,30.4534606 C13.3627685,30.4534606 16.0930788,27.9069212 16.0930788,24.5465394 C16.1193317,21.1599045 14.7804296,19.4797136 11.2100239,18.5083532 Z M49.0668258,8.82100239 C44.3937947,8.82100239 41.1646778,11.5250597 41.1646778,17.0906921 L41.1646778,30.4534606 L44.9451074,30.4534606 L44.9451074,16.9856802 C44.9451074,14.124105 46.4940334,12.3914081 49.4081146,12.3914081 L50.5369928,12.3914081 C53.8448687,12.3914081 54.3699284,10.6849642 54.3699284,8.84725537 L49.0668258,8.84725537 L49.0668258,8.82100239 Z M32.2911695,8.82100239 L32.2911695,23.8114558 C32.2911695,25.9904535 30.4797136,27.0930788 28.0906921,27.0930788 C25.5704057,27.0930788 23.9427208,25.9904535 23.9427208,23.8114558 L23.9164678,12.601432 C23.9164678,9.39856802 21.9212411,8.82100239 20.1622912,8.82100239 L20.1622912,24.7303103 C20.1622912,28.7470167 23.7589499,30.7159905 27.9856802,30.7159905 C32.0811456,30.7159905 36.097852,28.7470167 36.097852,24.7303103 L36.097852,13.0739857 C36.097852,9.94988067 34.9164678,8.82100239 32.2911695,8.82100239 Z M65.2124105,8.82100239 L65.2124105,8.82100239 L64.2673031,8.82100239 C59.2529833,8.82100239 54.5274463,12.522673 54.3174224,19.7159905 C54.1336516,26.2529833 57.5465394,30.8472554 63.3221957,30.8472554 C68.0739857,30.8472554 69.7279236,27.5393795 69.7279236,27.5393795 C69.9904535,29.7446301 71.1980907,30.4272076 73.5871122,30.4272076 L73.5871122,11.9188544 L73.5871122,11.9188544 L73.5871122,8.82100239 L65.2124105,8.82100239 Z M69.4916468,21.5799523 C69.4916468,24.5727924 67.7852029,27.4081146 64.0572792,27.4081146 C60.7231504,27.4081146 58.3341289,25.176611 58.4916468,19.7684964 C58.6491647,14.5966587 61.1169451,12.3126492 64.424821,12.3126492 C64.6873508,12.3126492 64.9236277,12.2863962 65.1599045,12.2863962 L65.1599045,12.2863962 L69.5178998,12.2863962 L69.5178998,21.5799523 L69.4916468,21.5799523 Z" id="Shape" fill-rule="nonzero"></path>
                    </g>
                    <g id="Group-10" transform="translate(127.000000, 11.000000)">
                        <text id="ASESORES" font-family="Helvetica" font-size="14" font-weight="normal" fill="#FFFFFF">
                            <tspan x="12" y="15">ASESORES</tspan>
                        </text>
                        <rect id="Rectangle" fill="#E4E828" transform="translate(1.000000, 9.000000) rotate(-270.000000) translate(-1.000000, -9.000000) " x="-8" y="8" width="18" height="2" rx="1"></rect>
                    </g>
                </g>
            </g>
        </g>
    </g>
</svg>