<?xml version="1.0" encoding="UTF-8"?>
<svg width="83px" height="70px" viewBox="0 0 83 70" version="1.1" xmlns="http://www.w3.org/2000/svg" xmlns:xlink="http://www.w3.org/1999/xlink">
    <title>manito</title>
    <defs>
        <polygon id="path-1" points="0.2526 0.7777 42.628 0.7777 42.628 45.9997 0.2526 45.9997"></polygon>
    </defs>
    <g id="manito" stroke="none" stroke-width="1" fill="none" fill-rule="evenodd">
        <g id="Group-8" transform="translate(18.000000, 11.000000)">
            <g id="Group-3" transform="translate(3.000000, 0.997300)">
                <mask id="mask-2" fill="white">
                    <use xlink:href="#path-1"></use>
                </mask>
                <g id="Clip-2"></g>
                <path d="M42.6256,14.6657 L26.2016,14.6657 L26.2016,6.8687 L26.2006,6.7887 C25.8036,1.3617 21.6436,0.7777 19.8736,0.7777 C18.9696,0.7777 18.3226,0.9157 18.2516,0.9307 L17.5346,1.0917 L14.8296,16.6347 L0.2526,16.6347 L0.2526,39.4287 C0.2526,44.2727 3.6716,45.9997 6.8686,45.9997 C7.1006,45.9997 7.2706,45.9897 7.3596,45.9837 L16.8696,45.9837 L16.8696,43.2627 L35.9786,43.2627 L36.0316,43.2627 C38.1656,43.1577 39.8376,42.4467 41.0016,41.1527 C42.6586,39.3107 42.6386,36.9287 42.6256,36.5757 L42.6256,14.6657 Z" id="Fill-1" fill-opacity="0.29" fill="#E3E829" mask="url(#mask-2)"></path>
            </g>
            <path d="M14.7262,16.0048 L14.7262,40.5448 L34.8482,40.5448 C37.7912,40.5448 40.1772,38.1608 40.1772,35.2168 L40.1772,14.1338 L24.0592,14.1338 C24.0592,14.1338 24.1242,10.8038 24.1612,5.2578 C24.1952,-0.2152 17.4152,0.2078 17.4152,0.2078 L14.7262,16.0048 Z" id="Stroke-4" stroke="#E3E829" stroke-width="2.4"></path>
            <path d="M14.7262,16.0048 L14.7262,43.1748 L5.5282,43.1748 C2.5852,43.1748 0.2002,40.7888 0.2002,37.8478 L0.2002,16.0048 L14.7262,16.0048 Z" id="Stroke-6" stroke="#E3E829" stroke-width="2.4"></path>
        </g>
    </g>
</svg>