<?xml version="1.0" encoding="UTF-8"?>
<svg width="77px" height="80px" viewBox="0 0 77 80" version="1.1" xmlns="http://www.w3.org/2000/svg" xmlns:xlink="http://www.w3.org/1999/xlink">
    <title>Group 39</title>
    <defs>
        <polygon id="path-1" points="3.0423364e-15 8.11289706e-15 72.0151542 8.11289706e-15 72.0151542 72.1891661 3.0423364e-15 72.1891661"></polygon>
        <polygon id="path-3" points="0 0 31.7965768 0 31.7965768 29.7836274 0 29.7836274"></polygon>
    </defs>
    <g id="Cartera-y-Resumen-V1" stroke="none" stroke-width="1" fill="none" fill-rule="evenodd">
        <g id="Resumen-1-cliente-(New-UI)" transform="translate(-323.000000, -245.000000)">
            <g id="Group-49" transform="translate(298.000000, 225.000000)">
                <g id="Group-39" transform="translate(25.000000, 20.000000)">
                    <g id="Group-3" transform="translate(4.692427, 7.810834)">
                        <mask id="mask-2" fill="white">
                            <use xlink:href="#path-1"></use>
                        </mask>
                        <g id="Clip-2"></g>
                        <path d="M42.6325907,8.11289706e-15 C40.2919238,-0.0036819983 18.9367632,0.322298691 7.26739672,17.9409555 C1.05578045,27.3193229 -3.11203395,42.6552586 2.97684003,51.0111541 C4.77487187,53.4788451 5.71741849,52.9359245 15.3287108,58.7767449 C28.5215089,66.7938146 28.4598524,68.8581687 33.9213134,70.6927378 C41.0309465,73.080789 51.535974,73.0756509 59.4048966,67.2117093 C68.3339701,60.5576499 69.6541634,49.5002821 70.9766402,38.4257876 C72.2745686,27.5573859 73.5896238,16.5454042 66.6860835,8.43499324 C59.5293516,0.0268608509 48.0266862,0.00859223081 42.6325907,8.11289706e-15" id="Fill-1" fill="#EEF0F1" mask="url(#mask-2)"></path>
                    </g>
                    <path d="M68.1448222,56.0292298 L26.8457521,50.2857469 C25.8087224,50.1535849 25.0317352,49.2709822 25.0317352,48.2256745 L24.4651225,19.4192006 C24.4651225,19.4192006 25.4065273,18.7406926 25.9400281,18.4803648 C26.2117739,18.3482028 26.5243385,18.2899715 26.8494629,18.3316468 L68.0257908,23.5827333 C69.0628204,23.7148953 69.8398076,24.5974981 69.8398076,25.6428057 L69.8398076,53.9360456 C69.8398076,54.4424289 69.60831,54.8885828 69.2506446,55.1828789 C68.9209531,55.4537683 68.1448222,56.0292298 68.1448222,56.0292298" id="Fill-4" fill="#000000"></path>
                    <path d="M66.8844016,56.4119003 L25.7080738,51.1608138 C24.6713296,51.0283663 23.8940569,50.1460491 23.8940569,49.1007414 L23.8940569,20.8072161 C23.8940569,19.834983 24.747544,19.083686 25.71207,19.2064283 L66.8883979,24.4578002 C67.9251421,24.5899622 68.7024148,25.4722795 68.7024148,26.5175871 L68.7024148,54.8111125 C68.7024148,55.7833456 67.8489277,56.534928 66.8844016,56.4119003" id="Fill-6" fill="#FFFFFF"></path>
                    <path d="M66.0093062,55.2456773 L26.6920959,50.2315119 C25.9382298,50.1353162 25.3730444,49.493631 25.3730444,48.7334851 L25.3730444,21.4418794 C25.3730444,20.792487 25.9430824,20.2906709 26.5870513,20.3728797 L65.9042616,25.3867595 C66.6584131,25.4829552 67.2233131,26.1246405 67.2233131,26.8847864 L67.2233131,54.1766775 C67.2233131,54.8257844 66.6535605,55.327886 66.0093062,55.2456773" id="Fill-8" fill="#FFFFFF"></path>
                    <path d="M66.900929,56.2824214 C67.3236763,56.336371 67.7492781,56.2059216 68.0686935,55.9241852 C68.3883943,55.6427343 68.5719369,55.2371138 68.5719369,54.8112266 L68.5719369,26.5177013 C68.5719369,25.5406156 67.8409066,24.7108206 66.8718134,24.587222 L25.695771,19.3361355 C25.2733091,19.282186 24.8474219,19.4126353 24.5277211,19.6940862 C24.2080202,19.9755372 24.0247631,20.3814431 24.0247631,20.8073303 L24.0247631,49.1005702 C24.0247631,50.0776559 24.7555079,50.9077363 25.7246012,51.031335 L66.900929,56.2824214 Z M67.0884678,56.555309 C67.0151079,56.555309 66.9414625,56.5507418 66.8681026,56.541322 L25.6917747,51.2902356 C24.5925176,51.150081 23.7638644,50.2086762 23.7638644,49.1005702 L23.7638644,20.8073303 C23.7638644,20.3063705 23.979377,19.8293882 24.355311,19.4982695 C24.7312449,19.1674362 25.2316339,19.0138656 25.7285974,19.0772349 L66.9049253,24.3283214 C68.003897,24.4684759 68.8328356,25.4095953 68.8328356,26.5177013 L68.8328356,54.8112266 C68.8328356,55.311901 68.6170375,55.7891687 68.2411036,56.120002 C67.9211173,56.4020238 67.5103588,56.555309 67.0884678,56.555309 L67.0884678,56.555309 Z" id="Fill-10" fill="#000000"></path>
                    <path d="M42.8622509,73.0747943 L0.514162347,67.6133332 C0.182758161,67.5710871 -0.00420974768,67.2933469 -5.51423472e-15,67.0158923 C0.00292643203,66.8246427 0.0183405802,65.4764756 0.0183405802,65.4764756 L22.4099599,52.6755964 C23.5320527,52.0350529 24.9835517,51.7875702 26.2649241,51.9514169 L68.0783701,57.3455124 C68.3301345,57.3780534 68.5459326,57.5413292 68.6455537,57.7745395 L68.7129192,57.9321064 C68.7129192,57.9321064 68.6769529,59.0561974 68.6915107,59.3188088 C68.7029286,59.5240454 68.6104437,59.7361326 68.3952165,59.8591604 L46.5656427,72.3403387 C45.4438353,72.9811676 44.1439088,73.2389264 42.8622509,73.0747943" id="Fill-12" fill="#000000"></path>
                    <path d="M5.72260302,66.7768873 L0.665620625,66.1234987 C0.105287794,66.0518515 -0.0420029555,65.3091179 0.448395315,65.0288088 L22.1609357,52.6281265 C23.2827432,51.9872976 24.5829551,51.7295388 25.8643275,51.8936709 L68.0611291,57.3445704 C68.6211765,57.4162177 68.7684672,58.1592367 68.278069,58.4392604 L46.565814,70.8402281 C45.4440066,71.4807716 44.1437946,71.7388158 42.8621367,71.5746837 L5.72260302,66.7768873 Z" id="Fill-14" fill="#FFFFFF"></path>
                    <path d="M51.1238918,64.6911247 L14.5338439,59.9298656 C14.0280315,59.8650691 13.8950131,59.1939828 14.3377417,58.9410766 L22.94112,54.0770565 C23.9544575,53.498455 25.1287872,53.2655301 26.2862756,53.4136772 L62.8763235,58.1749363 C63.3821359,58.2397328 63.5151543,58.9108192 63.0724257,59.1637254 L54.468762,64.0277455 C53.4557099,64.6063469 52.2813802,64.8392718 51.1238918,64.6911247" id="Fill-16" fill="#EEF0F1"></path>
                    <path d="M57.6684537,41.6580771 L35.3701756,38.8378589 C35.1369653,38.8084578 34.9479993,38.5849527 34.9479993,38.3386117 L34.9479993,36.1986142 C34.9479993,35.9522732 35.1369653,35.7767232 35.3701756,35.8061243 L57.6684537,38.6263425 C57.901664,38.6557436 58.0906301,38.8792487 58.0906301,39.1255896 L58.0906301,41.2655872 C58.0906301,41.5119281 57.901664,41.6874781 57.6684537,41.6580771" id="Fill-18" fill="#EEF0F1"></path>
                    <path d="M57.8370103,46.6006522 L35.3703184,43.7590255 C35.1836359,43.7356188 35.0323489,43.5566434 35.0323489,43.3593994 L35.0323489,41.0415682 C35.0323489,40.8443242 35.1836359,40.7035988 35.3703184,40.7272909 L57.8370103,43.5689177 C58.0236927,43.5926098 58.1749797,43.7715852 58.1749797,43.9685437 L58.1749797,46.2863749 C58.1749797,46.4836189 58.0236927,46.6243444 57.8370103,46.6006522" id="Fill-20" fill="#EEF0F1"></path>
                    <path d="M54.3325751,51.6322869 L38.7063397,49.6558506 C38.4500081,49.6235951 38.2422025,49.377825 38.2422025,49.1069357 L38.2422025,47.0557122 C38.2422025,46.7848228 38.4500081,46.5918605 38.7063397,46.624116 L54.3325751,48.6005523 C54.5889067,48.6330933 54.7967122,48.8785779 54.7967122,49.1494673 L54.7967122,51.2009762 C54.7967122,51.4715802 54.5889067,51.6648279 54.3325751,51.6322869" id="Fill-22" fill="#D9D652"></path>
                    <path d="M47.1501244,34.3279931 C45.006416,34.3279931 43.2686135,32.5901906 43.2686135,30.4464822 C43.2686135,28.3027738 45.006416,26.5649713 47.1501244,26.5649713 C49.2938328,26.5649713 51.0316353,28.3027738 51.0316353,30.4464822 C51.0316353,32.5901906 49.2938328,34.3279931 47.1501244,34.3279931 M47.1501244,26.2104459 C44.8105993,26.2104459 42.9140881,28.1069571 42.9140881,30.4464822 C42.9140881,32.7860074 44.8105993,34.6825185 47.1501244,34.6825185 C49.4896496,34.6825185 51.3861607,32.7860074 51.3861607,30.4464822 C51.3861607,28.1069571 49.4896496,26.2104459 47.1501244,26.2104459" id="Fill-24" fill="#D1D2D3"></path>
                    <path d="M48.6078747,29.5815487 C48.6078747,30.3385546 47.9941632,30.9522661 47.2371573,30.9522661 C46.4801513,30.9522661 45.8664399,30.3385546 45.8664399,29.5815487 C45.8664399,28.8245427 46.4801513,28.2108313 47.2371573,28.2108313 C47.9941632,28.2108313 48.6078747,28.8245427 48.6078747,29.5815487" id="Fill-26" fill="#696866"></path>
                    <path d="M46.6900977,32.9894456 C46.8459519,33.0031471 47.0172202,33.0137086 47.1947684,33.017134 C48.1404549,33.0060015 49.0027908,32.6497634 49.6621739,32.0680221 C49.3116447,31.5485082 48.8600673,31.1343243 48.3394116,30.8097709 C48.3242829,30.8003511 48.3082978,30.7937858 48.2925982,30.7863642 C48.0425465,31.1186247 47.6460604,31.3347082 47.1981937,31.3347082 C46.7377674,31.3347082 46.3312906,31.1069214 46.0829516,30.7589613 C46.0409908,30.7700937 45.999601,30.7855078 45.9607802,30.8097709 C45.4404099,31.1343243 44.9888325,31.5485082 44.6380179,32.0680221 C45.1994925,32.5632729 45.9079724,32.8949626 46.6900977,32.9894456" id="Fill-28" fill="#696866"></path>
                    <g id="Group-32" transform="translate(7.672726, 0.000000)">
                        <mask id="mask-4" fill="white">
                            <use xlink:href="#path-3"></use>
                        </mask>
                        <g id="Clip-31"></g>
                        <path d="M15.2427613,1.88697719 C14.6721523,1.90239133 14.1751888,2.21438511 13.9131482,2.72133932 L2.0633791,25.6441758 C1.809902,26.1345741 1.83387956,26.7063248 2.12731927,27.1738873 C2.42047354,27.6414498 2.92514417,27.9117683 3.47691358,27.8966396 L28.4033039,27.2195588 C28.9550733,27.2044301 29.4443298,26.9072796 29.7120792,26.4245884 C29.9795433,25.9418972 29.9721216,25.3695756 29.6926688,24.8937351 L16.6157622,2.64797939 C16.3266042,2.15586844 15.8133702,1.87156304 15.2427613,1.88697719 M28.4546844,29.105223 L3.52829408,29.7823037 C2.3022984,29.815701 1.18134729,29.2154056 0.529385912,28.1766633 C-0.122575467,27.1379209 -0.175383197,25.8673955 0.387804106,24.778129 L12.2372878,1.85529255 C12.8196001,0.728917941 13.9239952,0.0358521669 15.1916662,0.00131305707 C16.4590517,-0.0332260528 17.5994132,0.59903947 18.2419549,1.69201676 L31.3188615,23.9377725 C31.94028,24.9947835 31.956265,26.2664507 31.361964,27.3391612 C30.7673775,28.4115863 29.6803946,29.0718256 28.4546844,29.105223" id="Fill-30" fill="#C3C0B2" mask="url(#mask-4)"></path>
                    </g>
                    <path d="M36.1017482,28.1624195 L11.1753579,28.8395002 C9.28255763,28.8908807 8.02887358,26.8930358 8.89834572,25.211181 L20.7478294,2.28834448 C21.6469881,0.549400204 24.109541,0.482320115 25.1017554,2.17016934 L38.1783765,24.4156397 C39.1377645,26.0478267 37.9942631,28.111039 36.1017482,28.1624195" id="Fill-33" fill="#FFFFFF"></path>
                    <path d="M36.1017482,28.1624195 L11.1753579,28.8395002 C9.28255763,28.8908807 8.02887358,26.8930358 8.89834572,25.211181 L20.7478294,2.28834448 C21.6469881,0.549400204 24.109541,0.482320115 25.1017554,2.17016934 L38.1783765,24.4156397 C39.1377645,26.0478267 37.9942631,28.111039 36.1017482,28.1624195 Z" id="Stroke-35" stroke="#D1D2D3" stroke-width="1.5"></path>
                    <path d="M24.6999314,18.3771186 L21.6773311,18.4593273 L20.9685657,8.14269505 L24.8475076,8.03736504 L24.6999314,18.3771186 Z M21.256011,21.9714696 C21.2485894,21.7008656 21.2899793,21.4496721 21.380466,21.2176035 C21.4706673,20.985535 21.6016876,20.7831529 21.7735268,20.6101719 C21.945366,20.4374764 22.1537425,20.3007472 22.3989416,20.1996989 C22.6438553,20.0986505 22.9218808,20.0438447 23.2324474,20.0355667 C23.5430139,20.0270033 23.8258921,20.0666805 24.0802255,20.1540273 C24.334559,20.2413741 24.5523552,20.3666855 24.7333287,20.5299613 C24.9140168,20.693237 25.055884,20.8881975 25.158645,21.1148425 C25.261406,21.3417731 25.3164973,21.5903976 25.3239189,21.8610015 C25.3313406,22.13132 25.2896653,22.3805154 25.199464,22.6085877 C25.1089772,22.83666 24.9779569,23.0370439 24.8061177,23.2097395 C24.6342785,23.3827205 24.4239039,23.5197351 24.1744231,23.620498 C23.9249423,23.7215463 23.6449186,23.7766376 23.334352,23.7849155 C23.0237855,23.793479 22.7431909,23.7538018 22.4931392,23.6661695 C22.242802,23.5788227 22.0272893,23.4535114 21.8463158,23.2902356 C21.6653423,23.1269598 21.5234751,22.9342829 21.4209995,22.7113487 C21.3182385,22.4884144 21.2631472,22.241788 21.256011,21.9714696 L21.256011,21.9714696 Z" id="Fill-37" fill="#D9D652"></path>
                </g>
            </g>
        </g>
    </g>
</svg>