<?xml version="1.0" encoding="UTF-8"?>
<svg width="43px" height="38px" viewBox="0 0 43 38" version="1.1" xmlns="http://www.w3.org/2000/svg" xmlns:xlink="http://www.w3.org/1999/xlink">
    <title>Group 18</title>
    <g id="Asesoria" stroke="none" stroke-width="1" fill="none" fill-rule="evenodd" stroke-linecap="round" stroke-linejoin="round">
        <g id="asesoria-1.2" transform="translate(-528.000000, -710.000000)" stroke="#252323" stroke-width="1.8">
            <g id="Group-18" transform="translate(529.199600, 711.200000)">
                <polygon id="Stroke-4" points="32.849005 11.850102 7.54782341 11.850102 9.35395096 4.49087795 31.0438397 4.49087795"></polygon>
                <path d="M37.5101035,13.6638313 C39.100689,13.6638313 40.3958662,14.9618952 40.3958662,16.5476695 L40.3958662,25.4147261 C40.3958662,26.9995381 39.100689,28.3043378 37.5101035,28.3043378 L2.88961164,28.3043378 C1.29998845,28.3043378 0,26.9995381 0,25.4147261 L0,16.5476695 C0,14.9618952 1.29998845,13.6638313 2.88961164,13.6638313 L2.92136561,13.6638313 L6.73376698,0 L33.9363381,0 L37.4773873,13.6638313 L37.5101035,13.6638313 Z" id="Stroke-6"></path>
                <polygon id="Stroke-8" points="25.8204072 23.7891151 14.5756514 23.7891151 14.5756514 18.1571148 20.1056541 17.3363227 25.8204072 18.1571148"></polygon>
                <path d="M10.7268773,32.5222278 C10.7268773,33.8895731 9.614526,35 8.25199184,35 L6.69700935,35 C5.33832416,35 4.22789731,33.8895731 4.22789731,32.5222278 L4.22789731,28.3047227 L10.7268773,28.3047227 L10.7268773,32.5222278 Z" id="Stroke-10"></path>
                <path d="M36.1715292,32.5222278 C36.1715292,33.8895731 35.0543667,35 33.6947192,35 L32.1445479,35 C30.7849005,35 29.6667757,33.8895731 29.6667757,32.5222278 L29.6667757,28.3047227 L36.1715292,28.3047227 L36.1715292,32.5222278 Z" id="Stroke-12"></path>
                <path d="M10.2887687,20.979562 C10.2887687,22.5297333 9.03111889,23.7893076 7.47613641,23.7893076 C5.91922944,23.7893076 4.6635041,22.5297333 4.6635041,20.979562 C4.6635041,19.4216928 5.91922944,18.164043 7.47613641,18.164043 C9.03111889,18.164043 10.2887687,19.4216928 10.2887687,20.979562 Z" id="Stroke-14"></path>
                <path d="M35.7339017,20.979562 C35.7339017,22.5297333 34.4752896,23.7893076 32.9203071,23.7893076 C31.3662869,23.7893076 30.1076748,22.5297333 30.1076748,20.979562 C30.1076748,19.4216928 31.3662869,18.164043 32.9203071,18.164043 C34.4752896,18.164043 35.7339017,19.4216928 35.7339017,20.979562 Z" id="Stroke-16"></path>
            </g>
        </g>
    </g>
</svg>