<?xml version="1.0" encoding="UTF-8"?>
<svg width="43px" height="41px" viewBox="0 0 43 41" version="1.1" xmlns="http://www.w3.org/2000/svg" xmlns:xlink="http://www.w3.org/1999/xlink">
    <title>Group 29</title>
    <g id="Asesoria" stroke="none" stroke-width="1" fill="none" fill-rule="evenodd">
        <g id="asesoria-1.2" transform="translate(-528.000000, -795.000000)" stroke="#252323" stroke-width="1.6">
            <g id="Group-29" transform="translate(529.904400, 796.258100)">
                <path d="M27.0895954,8.89450113 C27.0895954,9.43531023 26.6511254,9.87289802 26.1111986,9.87289802 C25.5703895,9.87289802 25.1319194,9.43531023 25.1319194,8.89450113 C25.1319194,8.35369203 25.5703895,7.91610424 26.1111986,7.91610424 C26.6511254,7.91610424 27.0895954,8.35369203 27.0895954,8.89450113 Z" id="Stroke-2"></path>
                <path d="M14.2845064,17.3938499 C14.2845064,17.934659 13.8460363,18.3722468 13.3061095,18.3722468 C12.7653004,18.3722468 12.3268303,17.934659 12.3268303,17.3938499 C12.3268303,16.8530408 12.7653004,16.415453 13.3061095,16.415453 C13.8460363,16.415453 14.2845064,16.8530408 14.2845064,17.3938499 Z" id="Stroke-4"></path>
                <polyline id="Stroke-6" points="15.8774671 6.86201172 25.9419862 0 39.3748726 8.60177608 28.8912926 15.7434558"></polyline>
                <polyline id="Stroke-8" points="10.562981 10.48358 0 17.679076 13.4337686 26.2799698 22.8154391 19.8855418"></polyline>
                <polyline id="Stroke-10" points="19.3150897 8.99631087 26.0050659 4.4360462 32.660635 8.6963515 28.0368495 11.8494538"></polyline>
                <polyline id="Stroke-12" points="11.3060862 14.4516014 6.70876778 17.5835301 13.3705125 21.8447176 19.9025689 17.3938499"></polyline>
                <polyline id="Stroke-14" points="0.000352893378 21.580224 13.4341215 30.1864113 23.4562935 23.35616"></polyline>
                <line x1="39.3749608" y1="12.508394" x2="29.829195" y2="19.0122189" id="Stroke-16"></line>
                <polyline id="Stroke-18" points="0.000352893378 25.4869302 13.4341215 34.0931174 23.1457473 27.4754844"></polyline>
                <line x1="39.3749608" y1="16.4151883" x2="29.829195" y2="22.9190133" id="Stroke-20"></line>
                <polyline id="Stroke-22" points="0.000352893378 29.3938128 13.4341215 38 24.0068071 30.7947995"></polyline>
                <line x1="39.3749608" y1="20.3218945" x2="29.829195" y2="26.8257194" id="Stroke-24"></line>
                <path d="M10.7312229,10.6200615 L24.0044251,19.1150874 L24.0044251,30.9440734 C24.0044251,31.471649 24.5990504,31.7795484 25.0295804,31.4760601 L28.913172,28.7349608 C29.0860897,28.6132126 29.1884288,28.4147101 29.1884288,28.2029741 L29.1884288,15.9364003 L14.9535922,6.82557548 C14.6395171,6.62442626 14.2354542,6.63148413 13.9293192,6.84410239 L10.7029915,9.08321087 C10.1613001,9.45904231 10.1762981,10.2645214 10.7312229,10.6200615 Z" id="Stroke-26"></path>
            </g>
        </g>
    </g>
</svg>