<?xml version="1.0" encoding="UTF-8"?>
<svg width="44px" height="41px" viewBox="0 0 44 41" version="1.1" xmlns="http://www.w3.org/2000/svg" xmlns:xlink="http://www.w3.org/1999/xlink">
    <title>Group 42</title>
    <g id="Asesoria" stroke="none" stroke-width="1" fill="none" fill-rule="evenodd">
        <g id="asesoria-1.2" transform="translate(-528.000000, -622.000000)" stroke="#252323" stroke-width="1.6">
            <g id="Group-42" transform="translate(528.899712, 622.900018)">
                <path d="M1.46138122,35.8695202 C1.20507429,35.9048729 0.980584778,36.0683791 0.708369145,36.044516 C0.206361096,35.9994413 0.0242947966,36.2919847 0.0163404437,36.7374285 C0.00750227385,37.2394366 -0.00133589603,37.7414446 0.0181080777,38.2425688 C0.0402035024,38.7772781 0.232875606,38.9558092 0.766701067,38.9938133 C0.881597275,39.0017676 0.998261117,38.9955809 1.11404114,38.9955809 C14.1574123,38.9955809 27.2007834,38.9929295 40.2432707,39 C41.1712785,39 41.3780917,38.8223528 41.3445066,37.8952288 C41.3383199,37.7220006 41.3674859,37.5443534 41.3392037,37.3755444 C41.2649631,36.9336359 41.603465,36.3008229 40.9326479,36.1222919 C40.4774822,36.001209 39.9958019,35.7413668 39.4911424,35.9853003 C39.304657,36.0763334 39.106682,36.0418645 38.9122423,36.0418645 C26.7571072,36.0436322 14.6010884,36.0427484 2.44506953,36.0453998 C2.12247633,36.0453998 1.80960511,36.025072 1.51882932,35.8695202" id="Stroke-4"></path>
                <path d="M39.7805925,14.1051734 C39.4783271,13.918688 39.1495471,13.8700781 38.7969042,13.8700781 C26.7177774,13.8744971 14.6395344,13.8736133 2.56129146,13.8736133 C2.42606746,13.8736133 2.25283933,13.8188167 2.16269,13.8824515 C1.62886454,14.2580737 1.11359923,13.889522 0.593914845,13.8630075 C0.435711605,13.8550532 0.197081018,13.7569495 0.144935815,13.6358666 C-0.0830889674,13.1020411 0.0291557901,12.5240248 0.0176661692,11.9636848 C0.0105956333,11.6242991 0.312861043,11.5217763 0.537350558,11.3892038 C1.96029591,10.5513453 3.38589271,9.71613821 4.81944387,8.89683986 C9.89166956,5.99880396 14.970082,3.11137386 20.0387724,0.206267418 C20.4912867,-0.0526909597 20.8430459,-0.0818569203 21.3238423,0.199196882 C24.1432185,1.84839938 26.989993,3.4516434 29.8243941,5.07609902 C32.3733223,6.53793232 34.9134123,8.01567432 37.4676434,9.47043709 C38.609535,10.1209264 39.7593809,10.755507 40.888899,11.4280917 C41.2724755,11.6570003 41.3679278,11.923913 41.3449485,12.3110249 C41.3352265,12.484253 41.3431809,12.658365 41.3431809,12.8315931 C41.3431809,13.7251321 41.3422971,13.7171777 40.4761564,13.8789162 C40.2569698,13.9204556 40.0510405,14.0282813 39.8380406,14.1051734" id="Stroke-6"></path>
                <path d="M36.8285553,19.2567658 C36.9204723,19.5784752 36.9478706,19.9054875 36.9469868,20.241338 C36.9425677,24.427979 36.9443354,28.6146201 36.9443354,32.8012612" id="Stroke-8"></path>
                <path d="M34.0500115,19.2567658 C34.0305675,19.6041059 33.9952148,19.951446 33.9952148,20.2987861 C33.9907958,24.2353069 33.9934472,28.170944 33.9899119,32.1074648 C33.9899119,32.3390249 33.9536754,32.5697011 33.9342315,32.8012612" id="Stroke-10"></path>
                <path d="M29.4773192,19.2567658 C29.4967631,19.4883259 29.5321158,19.7198859 29.5329996,19.951446 C29.5356511,24.2353069 29.5347673,28.518284 29.5347673,32.8012612" id="Stroke-12"></path>
                <path d="M26.6408853,19.2567658 C26.6214413,19.6041059 26.5860886,19.951446 26.5852048,20.2987861 C26.5816696,24.2353069 26.5816696,28.170944 26.5852048,32.1074648 C26.5860886,32.3390249 26.6214413,32.5697011 26.6408853,32.8012612" id="Stroke-14"></path>
                <path d="M22.1259946,19.2567658 C22.1454386,19.6041059 22.1807913,19.951446 22.1807913,20.2987861 C22.1852103,24.2353069 22.1852103,28.170944 22.1816751,32.1074648 C22.1807913,32.3390249 22.1454386,32.5697011 22.1259946,32.8012612" id="Stroke-16"></path>
                <path d="M19.2896491,19.2567658 C19.2702051,19.4883259 19.2348525,19.7198859 19.2339686,19.951446 C19.2313172,24.2353069 19.232201,28.518284 19.232201,32.8012612" id="Stroke-18"></path>
                <path d="M14.7166916,19.2567658 C14.7361356,19.6041059 14.7714883,19.951446 14.7723721,20.2987861 C14.7759074,24.2353069 14.7732559,28.170944 14.7767912,32.1074648 C14.777675,32.3390249 14.8130277,32.5697011 14.8324717,32.8012612" id="Stroke-20"></path>
                <path d="M4.52928675,19.2567658 C4.50984277,19.6041059 4.47449009,19.951446 4.47360628,20.2987861 C4.47007101,24.2353069 4.47272246,28.170944 4.46918719,32.1074648 C4.46830338,32.3390249 4.4329507,32.5697011 4.41350672,32.8012612" id="Stroke-22"></path>
                <path d="M7.30765383,19.2567658 C7.43050439,19.5546122 7.42431767,19.869251 7.42431767,20.183006 C7.42343386,24.3890911 7.42343386,28.5951761 7.42343386,32.8012612" id="Stroke-24"></path>
                <path d="M11.9384129,19.2567658 C11.8155624,19.5546122 11.8217491,19.869251 11.8217491,20.183006 C11.8226329,24.3890911 11.8226329,28.5951761 11.8226329,32.8012612" id="Stroke-26"></path>
                <path d="M22.878388,17.0571221 C22.878388,17.2692382 22.8615955,17.4831219 22.8819233,17.6934703 C22.9455581,18.3581007 22.796193,18.9069511 22.1156539,19.1703285 C21.3069614,18.9299303 20.4682191,18.9758888 19.6383149,19.0925526 C18.9948962,19.182702 18.5052615,18.8282914 18.4813985,18.1565904 C18.469025,17.7906902 18.478747,17.4239062 18.478747,17.0571221" id="Stroke-28"></path>
                <path d="M30.2875142,17.0571221 C30.2875142,17.4239062 30.3051905,17.791574 30.2839789,18.1565904 C30.2442072,18.8371295 29.7625269,19.1915401 29.1288301,19.0899012 C28.3166023,18.9590963 27.5008392,18.9864946 26.5675285,19.1385111 C25.61389,18.7929387 25.7915372,17.9100055 25.888757,17.0571221" id="Stroke-30"></path>
                <path d="M15.4693502,17.0571221 C15.4887942,17.4044622 15.5214954,17.7518023 15.5241874,18.0991423 C15.5294497,18.8247561 15.0141844,19.2180546 14.3106661,19.0890174 C13.6407328,18.9661668 12.9557747,18.9626315 12.2867252,19.090785 C11.6654019,19.2092165 11.2774062,18.9723535 11.1245059,18.3315862 C11.0228669,17.9073541 11.0988752,17.4813543 11.0697092,17.0571221" id="Stroke-32"></path>
                <path d="M8.17591564,17.0571221 C8.15647167,17.4044622 8.12553807,17.7518023 8.12023517,18.0991423 C8.10874555,18.8901585 7.66595324,19.2339634 6.90145154,19.0899012 C6.21295811,18.9590963 5.50943979,18.9714697 4.82006254,19.090785 C4.29330761,19.1818182 3.75241162,18.8132665 3.71971039,18.2723705 C3.69584733,17.8675823 3.67993862,17.4619103 3.66137847,17.0571221" id="Stroke-34"></path>
                <path d="M37.6968171,17.0571221 C37.6773732,17.3655742 37.6517425,17.6740264 37.6411367,17.9833623 C37.6287632,18.3333538 37.6862113,18.6824616 37.2973319,18.9193245 C36.9844607,19.1093452 36.7237346,19.1013908 36.3613697,19.0563161 C35.7002746,18.9758888 35.0091297,18.9467228 34.3400802,19.0872497 C33.8106739,19.1986107 33.268894,18.8150341 33.2406119,18.2723705 C33.2185165,17.8675823 33.2008401,17.4619103 33.1813962,17.0571221" id="Stroke-36"></path>
                <path d="M1.73828108,36.1006384 L1.73828108,33.4889592 C1.73828108,33.3307559 1.86820218,33.2017187 2.02640542,33.2017187 L39.1396484,33.2017187 C39.2987354,33.2017187 39.4277727,33.3307559 39.4277727,33.4889592 L39.4277727,35.9857422" id="Stroke-38"></path>
                <path d="M1.73828108,13.8736133 L1.73828108,16.4852925 C1.73828108,16.6434958 1.86820218,16.772533 2.02640542,16.772533 L39.1396484,16.772533 C39.2987354,16.772533 39.4277727,16.6434958 39.4277727,16.4852925 L39.4277727,13.9885095" id="Stroke-40"></path>
            </g>
        </g>
    </g>
</svg>