<?xml version="1.0" encoding="UTF-8"?>
<svg width="45px" height="41px" viewBox="0 0 45 41" version="1.1" xmlns="http://www.w3.org/2000/svg" xmlns:xlink="http://www.w3.org/1999/xlink">
    <title>Group 6</title>
    <g id="Asesoria" stroke="none" stroke-width="1" fill="none" fill-rule="evenodd">
        <g id="asesoria-1.2" transform="translate(-527.000000, -537.000000)" stroke="#252323" stroke-width="2">
            <g id="Group-6" transform="translate(529.164000, 538.200100)">
                <path d="M28.982,22.359 L32.618,22.359 L32.618,17.216 L28.982,17.216 L28.982,22.359 Z M28.982,33.713 L32.618,33.713 L32.618,27.233 L28.982,27.233 L28.982,33.713 Z M7.494,33.713 L11.131,33.713 L11.131,27.233 L7.494,27.233 L7.494,33.713 Z M7.494,22.359 L11.131,22.359 L11.131,17.216 L7.494,17.216 L7.494,22.359 Z M15.639,38.552 L15.639,28.978 C15.639,26.664 17.626,24.77 20.056,24.77 C22.487,24.77 24.475,26.664 24.475,28.978 L24.475,38.552 L15.639,38.552 Z M7.584,0 L32.528,0 L40.112,12.147 L26.496,12.147 L20.056,6.043 L13.619,12.147 L0,12.147 L7.584,0 Z M3.051,38.552 L3.051,12.383 L3.051,38.552 Z M37.062,12.383 L37.062,38.552 L37.062,12.383 Z" id="Stroke-2"></path>
                <path d="M20.0562,16.456 C21.6132,16.456 22.8752,17.719 22.8752,19.276 C22.8752,20.832 21.6132,22.094 20.0562,22.094 C18.5002,22.094 17.2382,20.832 17.2382,19.276 C17.2382,17.719 18.5002,16.456 20.0562,16.456 Z" id="Stroke-4"></path>
                <line x1="0.7303" y1="38.5519" x2="39.3843" y2="38.5519" id="Stroke-5"></line>
            </g>
        </g>
    </g>
</svg>