<svg id="a79a065d-cfde-40ff-b555-d480de913128" data-name="Layer 1" xmlns="http://www.w3.org/2000/svg" viewBox="0 0 261.97 31"><title>pershing</title><line x1="159.69" x2="159.69" y2="31" fill="#58595b" stroke="#58595b" stroke-miterlimit="10" stroke-width="0.94"/><path d="M38.9,21.69H32.6v-.78H34V10.22H32.6V9.44h6c2.26,0,3.52,1.06,3.52,2.95s-1.13,2.8-3.19,2.84c2.43.07,3.8,1.22,3.8,3.23S41.3,21.69,38.9,21.69ZM37.68,10.46H36.4v4.36h1.32a2.05,2.05,0,0,0,1.89-2.23A1.91,1.91,0,0,0,37.68,10.46Zm.07,5.38H36.4v4.84h1.28c1.69,0,2.54-.8,2.54-2.36A2.33,2.33,0,0,0,37.75,15.84Z" fill="#58595b"/><path d="M54.93,10.22V21.89h-1.3L47.18,12.8v8.1h1.47v.78H44.45v-.78H46V11.17l-.59-.95H44.06V9.44h3.69l6,8.55V10.22H52.3V9.44h4.19v.78Z" fill="#58595b"/><path d="M67.31,10.22l-3.1,5.08v5.6h1.41v.78H60.43v-.78h1.39V15.79l-3.67-5.56H57V9.44h5.19v.78H60.8l2.63,4.06,2.47-4.06H64.32V9.44h4.32v.78Z" fill="#58595b"/><path d="M84.93,21.69v-.78h1.56v-8l-4.08,9-4.47-8.81v7.85H79.5v.78H75.22v-.78h1.56V10.22H75.22V9.44H78.5l4.4,8.62,3.88-8.62h3.67v.78H88.88V20.91h1.56v.78Z" fill="#58595b"/><path d="M92.34,21.69v-.78h1.41V10.22H92.34V9.44H100V8.92h1v2.95h-1V10.54H96.14v4.38h3V13.64h1v3.67h-1V16h-3v4.58h4V19.22h1v2.47Z" fill="#58595b"/><path d="M104,21.69v-.78h1.41V10.22H104V9.44h5.19v.78h-1.39V20.59h4V19.22h1v2.47Z" fill="#58595b"/><path d="M114.08,21.69v-.78h1.41V10.22h-1.41V9.44h5.19v.78h-1.39V20.59h4V19.22h1v2.47Z" fill="#58595b"/><path d="M129.91,21.93a6.21,6.21,0,0,1-6.12-6.36,6.13,6.13,0,1,1,12.26,0A6.22,6.22,0,0,1,129.91,21.93Zm0-11.65c-1.86,0-3.51,2.48-3.51,5.29s1.65,5.3,3.51,5.3,3.52-2.49,3.52-5.3S131.78,10.28,129.91,10.28Z" fill="#58595b"/><path d="M148.27,10.22V21.89H147l-6.46-9.09v8.1H142v.78h-4.19v-.78h1.54V11.17l-.59-.95h-1.34V9.44h3.69l6,8.55V10.22h-1.46V9.44h4.19v.78Z" fill="#58595b"/><path d="M175.42,16.66a4.53,4.53,0,0,1-1-.11v-.91a1.77,1.77,0,0,0,.5.06c1.26,0,2-.91,2-2.56s-.69-2.65-2-2.65h-1.11V20.91h1.58v.78h-5.38v-.78h1.41V10.22h-1.41V9.44h5.62c2.3,0,3.8,1.39,3.8,3.52A3.85,3.85,0,0,1,175.42,16.66Z" fill="#b38634"/><path d="M181.08,21.69v-.78h1.41V10.22h-1.41V9.44h7.64V8.92h1v2.95h-1V10.54h-3.86v4.38h3V13.64h1v3.67h-1V16h-3v4.58h4V19.22h1v2.47Z" fill="#b38634"/><path d="M200.86,21.69c-1.09,0-1.28-.11-1.91-1.09l-2.78-4.36h-.5v4.67h1.39v.78h-5.19v-.78h1.41V10.22h-1.41V9.44h5.47c1.59,0,2.48.24,3.15.91a3.23,3.23,0,0,1,.91,2.39A3.21,3.21,0,0,1,198.8,16l2.63,4c.43.65.65.82,1,.82h.76v.8Zm-4-11.2h-1.17v4.82h1.09a2.23,2.23,0,0,0,2.15-2.48C198.91,11.34,198.15,10.48,196.83,10.48Z" fill="#b38634"/><path d="M208.41,21.93a4.94,4.94,0,0,1-2.71-.72v.65h-1V18.51h1v1.37a3.43,3.43,0,0,0,2.37.91,1.77,1.77,0,0,0,2-1.65c0-.83-.54-1.43-2.26-2.54a9.05,9.05,0,0,1-2.52-1.89,3.18,3.18,0,0,1-.7-2.1c0-2,1.5-3.39,3.77-3.39a4.78,4.78,0,0,1,2,.41V9.07h1v3.17h-1V11a3.32,3.32,0,0,0-2-.69,1.62,1.62,0,0,0-1.71,1.56c0,.74.43,1.21,2.21,2.34.85.56,1.39.89,1.6,1a4.17,4.17,0,0,1,1.13,1.21,3.64,3.64,0,0,1-3.19,5.51Z" fill="#b38634"/><path d="M222.4,21.69v-.78h1.39V16h-6v4.88h1.39v.78H214v-.78h1.41V10.22H214V9.44h5.19v.78h-1.39v4.71h6V10.22H222.4V9.44h5.19v.78h-1.41V20.91h1.41v.78Z" fill="#b38634"/><path d="M229.37,21.69v-.78h1.41V10.22h-1.41V9.44h5.19v.78h-1.39V20.91h1.39v.78Z" fill="#b38634"/><path d="M246.9,10.22V21.89h-1.3l-6.45-9.09v8.1h1.47v.78h-4.19v-.78H238V11.17l-.59-.95H236V9.44h3.69l6,8.55V10.22h-1.46V9.44h4.19v.78Z" fill="#b38634"/><path d="M260.58,17.48v3.75a15.11,15.11,0,0,1-4.25.7c-4.06,0-6.92-2.65-6.92-6.38a6.23,6.23,0,0,1,4.12-5.94,9.08,9.08,0,0,1,2.75-.41,7.82,7.82,0,0,1,3,.56V9.07h1v3.3h-1V11a5.36,5.36,0,0,0-2.78-.7c-2.52,0-4.49,2.32-4.49,5.29a5.07,5.07,0,0,0,4.73,5.27,4,4,0,0,0,1.43-.26V17.48h-1.6V16.7H262v.78Z" fill="#b38634"/><g id="01548a87-17a5-4358-9d92-f96f4e105352" data-name="Icon"><path d="M24,15.5,12.5,11a28.63,28.63,0,0,0-6.14,4.5A28.84,28.84,0,0,0,12.5,20Z" fill="#b38634"/><path d="M0,6.1a23.63,23.63,0,0,0,5.22,8.24,28.86,28.86,0,0,1,6.46-3.67Z" fill="#a7a9ac"/><path d="M0,24.89a23.65,23.65,0,0,1,5.22-8.24,28.92,28.92,0,0,0,6.46,3.67Z" fill="#a89a75"/></g></svg>