<?xml version="1.0" encoding="UTF-8"?>
<svg width="42px" height="48px" viewBox="0 0 42 48" version="1.1" xmlns="http://www.w3.org/2000/svg" xmlns:xlink="http://www.w3.org/1999/xlink">
    <!-- Generator: Sketch 63.1 (92452) - https://sketch.com -->
    <title>proteccion</title>
    <desc>Created with Sketch.</desc>
    <g id="proteccion" stroke="none" stroke-width="1" fill="none" fill-rule="evenodd">
        <g id="Group-9" transform="translate(1.000000, 1.000000)">
            <path d="M21.6099,46.8212 C21.6099,46.8212 34.8489,37.7252 38.0479,32.2232 C40.7619,27.5582 40.8079,18.5602 40.8079,18.5602 L40.8079,7.6172 L21.6099,3.4012 L2.4119,7.6172 L2.4119,18.5602 C2.4119,18.5602 2.4579,27.5582 5.1719,32.2232 C8.3729,37.7252 21.6099,46.8212 21.6099,46.8212" id="Fill-1" fill="#BFD6EA"></path>
            <path d="M19.1977,43.4441 C19.1977,43.4441 32.4367,34.3481 35.6357,28.8461 C38.3497,24.1811 38.3957,15.1831 38.3957,15.1831 L38.3957,4.2401 L19.1977,0.0241 L-0.0003,4.2401 L-0.0003,15.1831 C-0.0003,15.1831 0.0457,24.1811 2.7597,28.8461 C5.9607,34.3481 19.1977,43.4441 19.1977,43.4441 Z" id="Stroke-3" stroke="#0077E2" stroke-width="2"></path>
            <path d="M15.7359,17.6212 C14.0289,17.6212 12.6399,19.0092 12.6399,20.7152 L12.6399,30.2402 L25.7549,30.2402 L25.7549,17.6212 L15.7359,17.6212 Z" id="Stroke-5" stroke="#0077E2" stroke-width="2"></path>
            <path d="M19.1977,15.2191 C21.5027,15.2191 23.3787,13.3431 23.3787,11.0361 C23.3787,8.7321 21.5027,6.8571 19.1977,6.8571 C16.8937,6.8571 15.0167,8.7321 15.0167,11.0361 C15.0167,13.3431 16.8937,15.2191 19.1977,15.2191 Z" id="Stroke-7" stroke="#0077E2" stroke-width="2"></path>
        </g>
    </g>
</svg>