<?xml version="1.0" encoding="UTF-8"?>
<svg width="86px" height="53px" viewBox="0 0 86 53" version="1.1" xmlns="http://www.w3.org/2000/svg" xmlns:xlink="http://www.w3.org/1999/xlink">
    <title>traspaso </title>
    <g id="traspaso-" stroke="none" stroke-width="1" fill="none" fill-rule="evenodd">
        <g id="Group-Copy-2" transform="translate(2.000000, 2.000000)" stroke="#252323" stroke-width="3">
            <g id="Group-3">
                <polyline id="Stroke-3" points="46.3862464 15.4736842 54.5110571 24.7526225 46.3862464 34.0598911"></polyline>
                <line x1="54.5110571" y1="24.7667877" x2="22.0118142" y2="24.7667877" id="Stroke-5"></line>
                <path d="M34.8760978,17.3941497 L34.8760978,0 L82,0 L82,38.2122547 C82,44.145586 77.170823,49 71.2718106,49 L34.8760978,49 L34.8760978,32.2617749" id="Stroke-1"></path>
                <line x1="67.6997093" y1="11.1501548" x2="67.7217883" y2="37.8308824" id="Stroke-7"></line>
                <path d="M73.0389339,17.8082496 C73.0389339,17.8082496 71.0549845,15.48511 67.6548661,15.48511 C64.2547477,15.48511 62.4562295,17.8099161 62.4562295,19.9497376 C62.4562295,22.0845596 63.8116821,23.526106 66.1779807,24.3493706 C68.7198646,25.2309638 71.4028731,25.0743102 72.7189421,27.4091154 C73.844657,29.4056155 73.4754356,32.4286967 70.2574664,33.7152561 C67.8124006,34.6918413 64.2924903,34.4485282 61.6111228,31.2237972" id="Stroke-9"></path>
                <line x1="7.44160574" y1="6.78562463" x2="7.46859112" y2="39.3954028" id="Stroke-7"></line>
                <path d="M13.9673247,14.923296 C13.9673247,14.923296 11.5424977,12.0839033 7.38679738,12.0839033 C3.23109709,12.0839033 1.03290813,14.9253329 1.03290813,17.5406703 C1.03290813,20.1498971 2.68957244,21.9117872 5.58171521,22.9179995 C8.68846219,23.9955023 11.9676948,23.8040368 13.5762236,26.6576876 C14.9520973,29.0978544 14.5008268,32.7927314 10.5677533,34.3651929 C7.57933948,35.558797 3.27722697,35.2614144 0,31.3200765" id="Stroke-9"></path>
            </g>
        </g>
    </g>
</svg>