<?xml version="1.0" encoding="UTF-8"?>
<svg width="39px" height="39px" viewBox="0 0 39 39" version="1.1" xmlns="http://www.w3.org/2000/svg" xmlns:xlink="http://www.w3.org/1999/xlink">
    <title>Group 9</title>
    <g id="Cartera-y-Resumen-V1" stroke="none" stroke-width="1" fill="none" fill-rule="evenodd">
        <g id="Resumen-1-cliente-(New-UI)" transform="translate(-701.000000, -32.000000)">
            <g id="Group-17" transform="translate(701.000000, 31.000000)">
                <g id="Group-9" transform="translate(0.000000, 1.000000)">
                    <circle id="Oval" fill="#BFD6EA" cx="20.1875" cy="20.1875" r="17.8125"></circle>
                    <circle id="Oval" stroke="#0077E2" stroke-width="2" cx="17.8125" cy="17.8125" r="16.8125"></circle>
                    <g id="Group-7" transform="translate(7.916667, 7.125000)" fill="#0077E2" fill-rule="nonzero">
                        <path d="M7.91666667,7.91666667 C10.1036458,7.91666667 11.875,6.1453125 11.875,3.95833333 C11.875,1.77135417 10.1036458,0 7.91666667,0 C5.7296875,0 3.95833333,1.77135417 3.95833333,3.95833333 C3.95833333,6.1453125 5.7296875,7.91666667 7.91666667,7.91666667 Z M7.91666667,1.97916667 C9.00520833,1.97916667 9.89583333,2.86979167 9.89583333,3.95833333 C9.89583333,5.046875 9.00520833,5.9375 7.91666667,5.9375 C6.828125,5.9375 5.9375,5.046875 5.9375,3.95833333 C5.9375,2.86979167 6.828125,1.97916667 7.91666667,1.97916667 Z" id="Shape"></path>
                        <path d="M1.97916667,13.8541667 C2.196875,13.1416667 5.2546875,11.875 7.91666667,11.875 C7.91666667,11.1822917 8.0453125,10.5192708 8.26302083,9.90572917 C5.56145833,9.80677083 -1.75785312e-14,11.1526042 -1.75785312e-14,13.8541667 L-1.75785312e-14,15.8333333 L9.440625,15.8333333 C8.92604167,15.259375 8.5203125,14.5963542 8.26302083,13.8541667 L1.97916667,13.8541667 Z" id="Path"></path>
                        <path d="M17.2484375,13.8739583 C17.6046875,13.2901042 17.8125,12.6072917 17.8125,11.875 C17.8125,9.68802083 16.0411458,7.91666667 13.8541667,7.91666667 C11.6671875,7.91666667 9.89583333,9.68802083 9.89583333,11.875 C9.89583333,14.0619792 11.6671875,15.8333333 13.8541667,15.8333333 C14.5864583,15.8333333 15.2692708,15.615625 15.853125,15.2692708 C16.7734375,16.1895833 17.45625,16.8723958 18.3963542,17.8125 L19.7916667,16.4171875 C18.3072917,14.9328125 19.0098958,15.6255208 17.2484375,13.8739583 Z M13.8541667,13.8541667 C12.765625,13.8541667 11.875,12.9635417 11.875,11.875 C11.875,10.7864583 12.765625,9.89583333 13.8541667,9.89583333 C14.9427083,9.89583333 15.8333333,10.7864583 15.8333333,11.875 C15.8333333,12.9635417 14.9427083,13.8541667 13.8541667,13.8541667 Z" id="Shape"></path>
                    </g>
                </g>
            </g>
        </g>
    </g>
</svg>